<?xml version="1.0" standalone="no"?>
<!DOCTYPE svg PUBLIC "-//W3C//DTD SVG 20010904//EN"
 "http://www.w3.org/TR/2001/REC-SVG-20010904/DTD/svg10.dtd">
<svg version="1.0" xmlns="http://www.w3.org/2000/svg"
 width="1280.000000pt" height="720.000000pt" viewBox="0 0 1280.000000 720.000000"
 preserveAspectRatio="xMidYMid meet">

<g transform="translate(0.000000,720.000000) scale(0.100000,-0.100000)"
fill="#000000" stroke="none">
<path d="M6140 6949 c-1020 -87 -1941 -631 -2512 -1482 -370 -552 -568 -1202
-568 -1867 0 -1269 720 -2434 1853 -3002 548 -275 1175 -398 1772 -348 1130
95 2119 731 2673 1720 274 490 422 1061 422 1630 0 1269 -720 2434 -1853 3002
-388 195 -804 311 -1242 348 -138 11 -406 11 -545 -1z m755 -48 c142 -24 285
-52 375 -76 81 -21 341 -105 355 -114 6 -4 44 -20 85 -36 90 -34 339 -160 430
-217 143 -90 288 -193 411 -293 84 -67 331 -312 399 -394 25 -30 59 -71 76
-90 39 -46 196 -270 251 -358 59 -97 180 -335 215 -423 16 -41 35 -88 42 -105
30 -66 107 -324 131 -438 14 -67 30 -138 35 -157 32 -122 44 -293 45 -600 0
-308 -13 -477 -45 -600 -5 -19 -21 -90 -35 -157 -24 -114 -101 -372 -131 -438
-7 -16 -26 -64 -42 -105 -35 -88 -156 -326 -215 -423 -55 -88 -212 -312 -251
-358 -17 -19 -51 -60 -76 -90 -68 -82 -315 -327 -399 -394 -265 -215 -583
-408 -831 -506 -41 -17 -88 -36 -105 -43 -67 -31 -358 -117 -475 -141 -309
-65 -348 -68 -720 -68 -372 0 -411 3 -720 68 -117 24 -408 110 -475 141 -16 7
-64 26 -105 43 -230 91 -579 299 -779 464 -25 21 -68 57 -96 80 -66 55 -298
288 -355 356 -25 30 -59 71 -76 90 -39 46 -196 270 -251 358 -59 97 -180 335
-215 423 -16 41 -35 89 -42 105 -30 66 -107 324 -131 438 -14 67 -30 138 -35
157 -33 129 -44 282 -45 600 0 319 11 469 45 600 5 19 21 90 35 157 24 114
101 372 131 438 7 17 26 64 42 105 35 88 156 326 215 423 55 88 212 312 251
358 17 19 51 60 76 90 55 66 287 299 355 356 28 23 71 59 96 80 202 167 565
382 789 468 41 16 80 32 85 36 25 17 337 111 448 134 67 14 138 30 157 35 35
9 227 36 310 44 25 2 180 2 345 0 241 -2 324 -7 420 -23z"/>
<path d="M4567 6058 c39 -40 108 -115 154 -165 l84 -93 508 0 507 0 0 -1055 0
-1055 -303 0 -304 0 -6 167 c-4 91 -7 268 -7 393 l0 227 -199 192 c-109 105
-202 191 -205 191 -8 0 -8 -569 1 -1102 l6 -428 796 0 796 0 -2 1032 c-2 568
-3 1198 -3 1401 l0 367 -946 0 -946 0 69 -72z"/>
<path d="M6530 5753 c0 -203 -1 -833 -3 -1401 l-2 -1032 769 0 768 0 -197 205
-198 205 -283 0 -284 0 0 1030 0 1030 508 0 507 1 79 87 c44 48 112 122 152
165 l73 77 -944 0 -945 0 0 -367z"/>
<path d="M4050 2281 l0 -401 80 0 80 0 0 105 0 105 73 0 c39 0 89 5 109 10 66
19 68 26 68 291 0 218 -2 239 -19 260 -19 23 -24 24 -205 27 l-186 3 0 -400z
m255 99 l0 -155 -47 -3 -48 -3 0 161 0 161 48 -3 47 -3 0 -155z"/>
<path d="M4520 2280 l0 -400 80 0 80 0 0 124 c0 182 13 179 70 -11 l34 -113
82 0 83 0 -40 117 c-21 64 -39 122 -39 129 0 6 10 14 23 18 13 3 29 17 35 31
15 33 16 385 1 437 -16 61 -41 68 -239 68 l-170 0 0 -400z m255 120 l0 -135
-47 -3 -48 -3 0 141 0 141 48 -3 47 -3 0 -135z"/>
<path d="M5049 2665 c-15 -8 -30 -22 -35 -32 -10 -22 -18 -590 -9 -651 3 -23
17 -55 30 -70 23 -27 25 -27 158 -30 165 -4 200 6 217 65 8 26 10 142 8 360
-4 402 15 367 -196 370 -114 2 -153 0 -173 -12z m209 -388 l2 -258 -47 3 -48
3 -3 245 c-1 134 0 251 3 258 3 9 19 12 47 10 l43 -3 3 -258z"/>
<path d="M5490 2279 l0 -401 181 4 181 3 24 28 24 28 0 339 c0 186 -3 346 -6
355 -15 37 -56 45 -234 45 l-170 0 0 -401z m255 239 c3 -13 4 -129 3 -258 l-3
-235 -47 -3 -48 -3 0 260 0 261 45 0 c38 0 45 -3 50 -22z"/>
<path d="M5960 2343 c0 -186 5 -356 10 -377 16 -72 33 -81 178 -84 77 -2 142
1 165 8 65 19 67 29 67 435 l0 355 -80 0 -80 0 -2 -327 -3 -328 -42 -3 -43 -3
0 330 0 331 -85 0 -85 0 0 -337z"/>
<path d="M6488 2665 c-17 -10 -31 -29 -37 -53 -13 -46 -14 -591 -1 -646 16
-72 34 -81 174 -84 l123 -4 11 58 c20 98 23 94 -68 94 l-80 0 0 250 0 250 81
0 82 0 -7 53 c-14 105 -3 97 -135 97 -82 -1 -124 -5 -143 -15z"/>
<path d="M6833 2608 l-19 -73 53 -3 53 -3 0 -324 0 -325 80 0 80 0 0 325 0
325 56 0 c48 0 55 2 50 18 -3 9 -12 43 -21 75 l-16 57 -148 0 -148 0 -20 -72z"/>
<path d="M7230 2280 l0 -400 80 0 80 0 0 400 0 400 -80 0 -80 0 0 -400z"/>
<path d="M7509 2665 c-15 -8 -30 -22 -35 -32 -10 -22 -18 -590 -9 -651 3 -23
17 -55 30 -70 23 -27 25 -27 158 -30 165 -4 200 6 217 65 8 26 10 142 8 360
-4 402 15 367 -196 370 -114 2 -153 0 -173 -12z m209 -388 l2 -258 -47 3 -48
3 -3 245 c-1 134 0 251 3 258 3 9 19 12 47 10 l43 -3 3 -258z"/>
<path d="M7940 2280 l0 -400 75 0 75 0 2 163 3 162 33 -125 c18 -69 37 -142
43 -162 l10 -38 79 0 80 0 0 400 0 400 -80 0 -79 0 -3 -152 -3 -153 -40 152
-40 153 -77 0 -78 0 0 -400z"/>
<path d="M8448 2664 c-15 -8 -31 -27 -35 -42 -5 -15 -8 -102 -8 -193 0 -207 1
-209 109 -209 39 0 77 -4 84 -9 9 -5 12 -31 10 -92 l-3 -84 -92 -3 c-59 -2
-93 -7 -93 -14 0 -6 5 -40 12 -75 l12 -64 134 3 c132 3 134 3 158 31 23 28 24
32 24 210 0 100 -4 188 -8 195 -12 18 -69 32 -134 32 l-58 0 0 90 0 90 100 0
101 0 -7 38 c-3 20 -9 53 -13 72 l-7 35 -129 2 c-100 2 -136 -1 -157 -13z"/>
</g>
</svg>
